<svg width="158" height="28" viewBox="0 0 158 28" fill="none" xmlns="http://www.w3.org/2000/svg">
<rect width="158" height="28" fill="white"/>
<path d="M1.224 23.796C1.728 24.156 2.388 24.468 3.204 24.732C4.044 24.996 5.004 25.128 6.084 25.128C7.332 25.128 8.34 24.924 9.108 24.516C9.876 24.084 10.464 23.448 10.872 22.608C11.28 21.744 11.556 20.676 11.7 19.404C11.844 18.132 11.916 16.644 11.916 14.94V1.44H14.436V14.436C14.436 16.356 14.34 18.108 14.148 19.692C13.956 21.276 13.584 22.644 13.032 23.796C12.48 24.948 11.652 25.836 10.548 26.46C9.444 27.084 7.98 27.396 6.156 27.396C4.98 27.396 3.936 27.264 3.024 27C2.112 26.736 1.272 26.34 0.504 25.812L1.224 23.796ZM30.616 27.18C28.96 27.18 27.388 26.844 25.9 26.172C24.436 25.5 23.14 24.576 22.012 23.4C20.908 22.2 20.044 20.808 19.42 19.224C18.796 17.64 18.484 15.924 18.484 14.076C18.484 12.324 18.796 10.68 19.42 9.144C20.044 7.584 20.92 6.216 22.048 5.04C23.176 3.864 24.496 2.94 26.008 2.268C27.52 1.596 29.164 1.26 30.94 1.26C33.34 1.26 35.392 1.776 37.096 2.808C38.824 3.816 40.12 5.16 40.984 6.84L37.276 9.576C36.628 8.304 35.716 7.332 34.54 6.66C33.388 5.988 32.128 5.652 30.76 5.652C29.68 5.652 28.696 5.88 27.808 6.336C26.92 6.792 26.152 7.416 25.504 8.208C24.856 9 24.352 9.912 23.992 10.944C23.656 11.976 23.488 13.068 23.488 14.22C23.488 15.444 23.668 16.572 24.028 17.604C24.412 18.636 24.94 19.536 25.612 20.304C26.308 21.072 27.112 21.684 28.024 22.14C28.936 22.572 29.944 22.788 31.048 22.788C32.344 22.788 33.58 22.452 34.756 21.78C35.956 21.108 37.072 20.124 38.104 18.828V23.724C35.968 26.028 33.472 27.18 30.616 27.18ZM37.744 17.496H32.596V13.86H41.848V27H37.744V17.496ZM44.606 21.6C44.606 20.424 44.942 19.416 45.614 18.576C46.286 17.712 47.21 17.052 48.386 16.596C49.586 16.116 50.966 15.876 52.526 15.876C53.438 15.876 54.386 15.948 55.37 16.092C56.354 16.236 57.23 16.452 57.998 16.74V15.156C57.998 13.572 57.53 12.312 56.594 11.376C55.658 10.44 54.362 9.972 52.706 9.972C51.698 9.972 50.702 10.164 49.718 10.548C48.758 10.908 47.75 11.448 46.694 12.168L45.758 10.44C46.982 9.6 48.182 8.976 49.358 8.568C50.534 8.136 51.734 7.92 52.958 7.92C55.262 7.92 57.086 8.58 58.43 9.9C59.774 11.22 60.446 13.044 60.446 15.372V24.048C60.446 24.384 60.518 24.636 60.662 24.804C60.806 24.948 61.034 25.032 61.346 25.056V27C61.082 27.024 60.854 27.048 60.662 27.072C60.47 27.096 60.326 27.096 60.23 27.072C59.63 27.048 59.174 26.856 58.862 26.496C58.55 26.136 58.382 25.752 58.358 25.344L58.322 23.976C57.482 25.056 56.39 25.896 55.046 26.496C53.702 27.072 52.334 27.36 50.942 27.36C49.742 27.36 48.65 27.108 47.666 26.604C46.706 26.076 45.95 25.38 45.398 24.516C44.87 23.628 44.606 22.656 44.606 21.6ZM57.17 23.04C57.434 22.704 57.638 22.38 57.782 22.068C57.926 21.756 57.998 21.48 57.998 21.24V18.504C57.182 18.192 56.33 17.952 55.442 17.784C54.578 17.616 53.702 17.532 52.814 17.532C51.062 17.532 49.646 17.88 48.566 18.576C47.486 19.272 46.946 20.22 46.946 21.42C46.946 22.116 47.126 22.776 47.486 23.4C47.846 24 48.374 24.504 49.07 24.912C49.766 25.296 50.582 25.488 51.518 25.488C52.694 25.488 53.786 25.26 54.794 24.804C55.826 24.348 56.618 23.76 57.17 23.04ZM93.6352 27H91.1872V16.524C91.1872 14.34 90.8392 12.732 90.1432 11.7C89.4472 10.668 88.4152 10.152 87.0472 10.152C85.6312 10.152 84.3592 10.656 83.2312 11.664C82.1272 12.672 81.3472 13.968 80.8912 15.552V27H78.4432V16.524C78.4432 14.316 78.1072 12.708 77.4352 11.7C76.7632 10.668 75.7312 10.152 74.3392 10.152C72.9472 10.152 71.6872 10.644 70.5592 11.628C69.4312 12.612 68.6392 13.908 68.1832 15.516V27H65.7352V8.244H67.9672V12.492C68.7592 11.028 69.7672 9.9 70.9912 9.108C72.2392 8.316 73.6192 7.92 75.1312 7.92C76.6912 7.92 77.9512 8.364 78.9112 9.252C79.8712 10.14 80.4592 11.304 80.6752 12.744C81.5392 11.16 82.5712 9.96 83.7712 9.144C84.9952 8.328 86.3752 7.92 87.9112 7.92C88.9672 7.92 89.8552 8.112 90.5752 8.496C91.3192 8.88 91.9072 9.432 92.3392 10.152C92.7952 10.848 93.1192 11.7 93.3112 12.708C93.5272 13.692 93.6352 14.796 93.6352 16.02V27ZM107.997 27.36C106.533 27.36 105.177 26.988 103.929 26.244C102.681 25.476 101.709 24.516 101.013 23.364V27H98.8172V0.719999H101.265V12.168C102.105 10.896 103.113 9.876 104.289 9.108C105.465 8.316 106.833 7.92 108.393 7.92C109.713 7.92 110.889 8.196 111.921 8.748C112.977 9.3 113.877 10.044 114.621 10.98C115.365 11.892 115.929 12.936 116.313 14.112C116.697 15.264 116.889 16.452 116.889 17.676C116.889 18.996 116.661 20.232 116.205 21.384C115.773 22.536 115.149 23.568 114.333 24.48C113.517 25.368 112.569 26.076 111.489 26.604C110.433 27.108 109.269 27.36 107.997 27.36ZM107.421 25.2C108.429 25.2 109.365 24.996 110.229 24.588C111.093 24.18 111.837 23.616 112.461 22.896C113.085 22.176 113.565 21.372 113.901 20.484C114.237 19.572 114.405 18.636 114.405 17.676C114.405 16.356 114.117 15.12 113.541 13.968C112.989 12.792 112.209 11.856 111.201 11.16C110.217 10.44 109.053 10.08 107.709 10.08C106.749 10.08 105.849 10.296 105.009 10.728C104.193 11.16 103.461 11.736 102.813 12.456C102.189 13.152 101.673 13.92 101.265 14.76V20.592C101.361 21.24 101.613 21.852 102.021 22.428C102.429 22.98 102.933 23.46 103.533 23.868C104.157 24.276 104.805 24.6 105.477 24.84C106.149 25.08 106.797 25.2 107.421 25.2ZM129.028 27.36C127.684 27.36 126.436 27.108 125.284 26.604C124.156 26.076 123.172 25.368 122.332 24.48C121.516 23.568 120.88 22.536 120.424 21.384C119.968 20.208 119.74 18.972 119.74 17.676C119.74 16.332 119.968 15.084 120.424 13.932C120.88 12.756 121.528 11.724 122.368 10.836C123.208 9.924 124.192 9.216 125.32 8.712C126.472 8.184 127.72 7.92 129.064 7.92C130.408 7.92 131.644 8.184 132.772 8.712C133.9 9.216 134.884 9.924 135.724 10.836C136.564 11.724 137.212 12.756 137.668 13.932C138.124 15.084 138.352 16.332 138.352 17.676C138.352 18.972 138.124 20.208 137.668 21.384C137.212 22.536 136.564 23.568 135.724 24.48C134.908 25.368 133.924 26.076 132.772 26.604C131.644 27.108 130.396 27.36 129.028 27.36ZM122.224 17.712C122.224 19.104 122.524 20.376 123.124 21.528C123.748 22.656 124.576 23.556 125.608 24.228C126.64 24.876 127.78 25.2 129.028 25.2C130.276 25.2 131.416 24.864 132.448 24.192C133.48 23.52 134.308 22.608 134.932 21.456C135.556 20.28 135.868 19.008 135.868 17.64C135.868 16.248 135.556 14.976 134.932 13.824C134.308 12.672 133.48 11.76 132.448 11.088C131.416 10.416 130.276 10.08 129.028 10.08C127.78 10.08 126.64 10.428 125.608 11.124C124.6 11.82 123.784 12.744 123.16 13.896C122.536 15.024 122.224 16.296 122.224 17.712ZM140.934 21.6C140.934 20.424 141.27 19.416 141.942 18.576C142.614 17.712 143.538 17.052 144.714 16.596C145.914 16.116 147.294 15.876 148.854 15.876C149.766 15.876 150.714 15.948 151.698 16.092C152.682 16.236 153.558 16.452 154.326 16.74V15.156C154.326 13.572 153.858 12.312 152.922 11.376C151.986 10.44 150.69 9.972 149.034 9.972C148.026 9.972 147.03 10.164 146.046 10.548C145.086 10.908 144.078 11.448 143.022 12.168L142.086 10.44C143.31 9.6 144.51 8.976 145.686 8.568C146.862 8.136 148.062 7.92 149.286 7.92C151.59 7.92 153.414 8.58 154.758 9.9C156.102 11.22 156.774 13.044 156.774 15.372V24.048C156.774 24.384 156.846 24.636 156.99 24.804C157.134 24.948 157.362 25.032 157.674 25.056V27C157.41 27.024 157.182 27.048 156.99 27.072C156.798 27.096 156.654 27.096 156.558 27.072C155.958 27.048 155.502 26.856 155.19 26.496C154.878 26.136 154.71 25.752 154.686 25.344L154.65 23.976C153.81 25.056 152.718 25.896 151.374 26.496C150.03 27.072 148.662 27.36 147.27 27.36C146.07 27.36 144.978 27.108 143.994 26.604C143.034 26.076 142.278 25.38 141.726 24.516C141.198 23.628 140.934 22.656 140.934 21.6ZM153.498 23.04C153.762 22.704 153.966 22.38 154.11 22.068C154.254 21.756 154.326 21.48 154.326 21.24V18.504C153.51 18.192 152.658 17.952 151.77 17.784C150.906 17.616 150.03 17.532 149.142 17.532C147.39 17.532 145.974 17.88 144.894 18.576C143.814 19.272 143.274 20.22 143.274 21.42C143.274 22.116 143.454 22.776 143.814 23.4C144.174 24 144.702 24.504 145.398 24.912C146.094 25.296 146.91 25.488 147.846 25.488C149.022 25.488 150.114 25.26 151.122 24.804C152.154 24.348 152.946 23.76 153.498 23.04Z" fill="#7B7D75"/>
</svg>
